<svg width="56" height="56" viewBox="0 0 56 56" fill="none" xmlns="http://www.w3.org/2000/svg">
    <g clip-path="url(#yg0rvm00ra)" fill-rule="evenodd" clip-rule="evenodd">
        <path d="M42.256 53.926H13.744c-6.445 0-11.67-5.225-11.67-11.67V13.744c0-6.445 5.225-11.67 11.67-11.67h28.512c6.445 0 11.67 5.225 11.67 11.67v28.512c0 6.445-5.225 11.67-11.67 11.67z" fill="#FFCB05"/>
        <path d="M42.257 55.793H13.745c-7.476 0-13.537-6.06-13.537-13.537V13.744C.208 6.268 6.268.208 13.745.208h28.512c7.475 0 13.536 6.06 13.536 13.536v28.512c0 7.476-6.06 13.537-13.536 13.537zm-28.512-1.867h28.512c6.445 0 11.67-5.225 11.67-11.67V13.744c0-6.445-5.225-11.67-11.67-11.67H13.745c-6.445 0-11.67 5.225-11.67 11.67v28.512c0 6.445 5.225 11.67 11.67 11.67z" fill="#fff"/>
        <path d="M28.278 49.716s.338.009.584-.139c.397-.238.919-.67 1.658-1.71l-7.92 1.947 5.678-.098zM24.139 45.069c.38.136 1.614.57 2.303 1.038l.066.046 5.132-.08c.008-.013.197-.345.31-.56.122-.234.13-.436-.009-.57-.151-.145-.395-.168-.89-.168h-6.885c-.055 0-.194-.01-.217.104a.122.122 0 0 0 .03.105c.038.042.114.068.16.085zM34.456 46.355c-.114.003-7.627.118-7.743.123-.063.002-.081.016-.081.084-.003.545-.725 1.069-1.707 1.537-1.036.494-2.336.985-3.012 1.235-.161.06-.45.16-.543.208-.075.038-.126.096-.103.164.024.069.1.103.356.035l.387-.1c1.298-.337 3.675-.932 5.99-1.51 2.397-.6 4.76-1.117 6.492-1.43.137-.024.249-.097.243-.201-.005-.096-.118-.15-.279-.145z" fill="#16468B"/>
        <path d="M19.642 32.54V15.229h-5.105v17.825c0 3.438 2.774 6.264 6.21 6.288h9.722v-4.624h-8.65a2.178 2.178 0 0 1-2.177-2.178z" fill="#00F"/>
        <path d="M35.26 15.229h-9.722v16.507h4.933V19.853h3.716c1.203 0 2.178.975 2.178 2.178v17.311h5.105V21.516c0-3.437-2.774-6.263-6.21-6.287zM27.98 12.226c1.69 0 3.07-1.311 3.07-2.898 0-1.586-1.38-2.897-3.07-2.897s-3.036 1.31-3.036 2.897c0 1.587 1.346 2.898 3.036 2.898z" fill="#00F"/>
    </g>
    <defs>
        <clipPath id="yg0rvm00ra">
            <path fill="#fff" d="M0 0h56v56H0z"/>
        </clipPath>
    </defs>
</svg>
