<svg width="154" height="133" viewBox="0 0 154 133" fill="none" xmlns="http://www.w3.org/2000/svg">
    <g clip-path="url(#1jkzwxc9ya)">
        <path d="M152.77 140.35s-8.64-51.58-10.33-57.49a33.24 33.24 0 0 0-25.62-23.42L73.29 51c-13.2-2.57-27.46 2.82-33.67 14.74L.76 140.35h152.01z" fill="#383C45"/>
        <path d="m76.45 51.58 36.65 7.14c-3.2 3.68-10.15 10-22.58 7.58C80.05 64.29 77.21 56 76.45 51.58z" fill="#fff"/>
        <path d="M152.77 141.11H.76a.777.777 0 0 1-.65-.36.749.749 0 0 1 0-.75L39 65.35c6-11.67 20.21-17.89 34.43-15.13L117 58.7a33.835 33.835 0 0 1 26.2 24c1.68 5.88 10 55.47 10.35 57.58a.755.755 0 0 1-.17.61.765.765 0 0 1-.61.22zM2 139.59h149.87c-1.15-6.85-8.62-51.15-10.16-56.52a32.312 32.312 0 0 0-25-22.88l-43.57-8.48C59.58 49.07 46.07 55 40.29 66.06 38.28 69.91 6.7 130.59 2 139.59zM118.64 30.3a18.692 18.692 0 0 1-24.855 14.741A18.69 18.69 0 0 1 103 9a18.685 18.685 0 0 1 12.233 7.41 18.677 18.677 0 0 1 3.407 13.89z" fill="#383C45"/>
        <path d="M75.82 32c4.66-17.76 7.5-20.36 16.63-18.38 7.6 1.65 15 10.5 15 10.5l-3.35 18.21-2.56 16.11-16.37-3.68 1.17-7.44C76.63 45.3 73.54 40.65 75.82 32z" fill="#fff"/>
        <path d="M101.85 57.29a.778.778 0 0 1-.75-.88l2.25-14.2 3.25-17.91c-1.29-1.46-7.78-8.56-14.31-10-4.81-1-7.24-.63-9.27 1.56-2.2 2.37-4 6.93-6.47 16.27-1 4-.89 7.07.49 9.3 1.51 2.44 4.6 4.12 9.46 5.13a.74.74 0 0 1 .59.86l-1 6a.762.762 0 0 1-.87.64.77.77 0 0 1-.63-.87l.84-5.3c-4.88-1.12-8.07-3-9.73-5.66-1.66-2.66-1.83-6-.66-10.48 2.52-9.61 4.43-14.35 6.81-16.92 2.78-3 6.29-3 10.71-2 7.76 1.68 15.07 10.39 15.38 10.76a.77.77 0 0 1 .16.62l-3.31 18.24-2.19 14.2a.759.759 0 0 1-.75.64z" fill="#383C45"/>
        <path d="M101 17.92S92.67 32 102 33.58c0 0-4.86 6.09 1.57 12.24l6.54-15.26-.93-16.25-8.18 3.61zM90.87 30.35a1 1 0 1 1-1.945-.466 1 1 0 0 1 1.945.466zM81.19 27.82a1 1 0 1 1-1.945-.466 1 1 0 0 1 1.945.466zM91.26 49c-.14 0-4.76-.89-4.76-.89a.75.75 0 0 1-.61-.88.759.759 0 0 1 .89-.61l4.62.88a.75.75 0 0 1 .61.88.76.76 0 0 1-.75.62z" fill="#383C45"/>
        <path d="M96.48 33.53s2.4-4.77 6-4.88c3.15-.1 6.31 4.21 4.67 7.94-1.64 3.73-7.94 1.87-7.94 1.87l-2.73-4.93z" fill="#fff"/>
        <path d="M100 36.47a.71.71 0 0 1-.28-.06.75.75 0 0 1-.42-1 5 5 0 0 1 5.71-3 .76.76 0 0 1-.3 1.48 3.581 3.581 0 0 0-4 2 .773.773 0 0 1-.71.58zM94.1 18.09a5.95 5.95 0 1 0 5.9-5.95 5.94 5.94 0 0 0-5.9 5.95z" fill="#383C45"/>
        <path d="M85.7 14.69a5.94 5.94 0 1 0 11.88 0 5.94 5.94 0 0 0-11.88 0z" fill="#383C45"/>
        <path d="M78.41 13a5.94 5.94 0 1 0 11.88 0 5.94 5.94 0 0 0-11.88 0z" fill="#383C45"/>
        <path d="M90.54 13.02a5.94 5.94 0 1 0 0-11.88 5.94 5.94 0 0 0 0 11.88z" fill="#383C45"/>
        <path d="M94.1 8.37a5.95 5.95 0 1 0 5.9-5.94 5.94 5.94 0 0 0-5.9 5.94z" fill="#383C45"/>
        <path d="M100.18 13.4a6.7 6.7 0 1 1 6.7-6.7 6.707 6.707 0 0 1-6.7 6.7zm0-11.88a5.18 5.18 0 1 0 0 10.36 5.18 5.18 0 0 0 0-10.36zM108.46 19.8a5.938 5.938 0 0 0 7.099 5.826 5.94 5.94 0 1 0-7.099-5.826z" fill="#383C45"/>
        <path d="M103.23 11.64a5.938 5.938 0 0 0 3.667 5.488 5.94 5.94 0 1 0-3.667-5.488zM93.57 26.92a1.001 1.001 0 0 0 .43-1.47 5 5 0 0 0-2.71-1.78 5.129 5.129 0 0 0-2.83 0 1 1 0 0 0-.72 1.05 1 1 0 0 0 1.13 1 4.918 4.918 0 0 1 2 .08 6.548 6.548 0 0 1 1.75 1 1.001 1.001 0 0 0 1 .11l-.05.01zM80.06 21h-.2a1.093 1.093 0 0 0-.34 2.16l.22.05a6.488 6.488 0 0 1 1.81.88 1 1 0 0 0 1 .05 1 1 0 0 0 .29-1.5A5 5 0 0 0 80.06 21zM80.55 34a.77.77 0 0 1-.44-.14l-.7-.5a2.55 2.55 0 0 1 1.75-4.62L82 26a.78.78 0 0 1 1-.51.77.77 0 0 1 .51 1l-1 3.34a.77.77 0 0 1-.85.54l-.53-.09a1 1 0 0 0-1.12.64 1 1 0 0 0 .36 1.23l.7.5a.76.76 0 0 1-.52 1.35z" fill="#383C45"/>
        <path d="M77 96.67c-1.9-14.88-14.32-21.44-14.32-21.44v11.3a1.54 1.54 0 0 1-2.38 1.29c-14.16-9.24-20.18-12.1-24.11-9.4a5.2 5.2 0 0 0-1.95 7A5.199 5.199 0 0 0 26.91 87a5.31 5.31 0 0 0 .47 7.23s-2.45 0-3.82 3c-1.16 2.57-.52 6 4.31 9.5l6 4.52s-10.42-4-11.6 2.59c-1 5.42 7.38 8.15 20.13 12.7l13.45 13.79h55.3L77 96.67z" fill="#fff"/>
        <path d="M111.15 141.11h-55.3a.741.741 0 0 1-.54-.23L42 127.22l-1.37-.49c-12.12-4.32-20.13-7.17-19.09-13a4.88 4.88 0 0 1 2.42-3.57c1.83-1 4.32-1 6.39-.61l-2.92-2.19C21.34 103 22 98.94 22.87 96.93A5.62 5.62 0 0 1 26 93.8a6 6 0 0 1 .3-7.21A5.87 5.87 0 0 1 32.93 84a5.94 5.94 0 0 1 2.83-6.21c4.43-3 11 .27 25 9.38a.79.79 0 0 0 .8 0 .78.78 0 0 0 .4-.69V75.23a.76.76 0 0 1 1.04-.67 30.24 30.24 0 0 1 14.73 21.81l34 43.52a.748.748 0 0 1 .08.8.748.748 0 0 1-.66.42zm-55-1.52h53.42L76.41 97.14a.76.76 0 0 1-.16-.37c-1.49-11.69-9.77-18.18-12.81-20.19v10a2.29 2.29 0 0 1-3.55 1.92C45.18 78.86 40 76.75 36.62 79.05a4.45 4.45 0 0 0-1.73 6 .76.76 0 0 1-1.08 1c-.36-.25-3.63-2.29-6.29 1.41a4.56 4.56 0 0 0 .37 6.23.76.76 0 0 1 .2.84.73.73 0 0 1-.72.48c-.07 0-2 0-3.12 2.53-1.24 2.74.21 5.79 4.06 8.58l6 4.52a.767.767 0 1 1-.71 1.36c-.06 0-5.89-2.21-8.92-.49A3.342 3.342 0 0 0 23 114c-.82 4.56 6.7 7.24 18.1 11.3l1.53.55c.109.038.208.1.29.18l13.23 13.56z" fill="#383C45"/>
        <path d="M57.84 101.8a.74.74 0 0 1-.37-.1c-19.74-11.24-23.65-15.58-23.8-15.76a.75.75 0 0 1 .07-1.07.77.77 0 0 1 1.07.07c.06.07 4.09 4.43 23.41 15.45a.748.748 0 0 1 .28 1 .744.744 0 0 1-.66.41zM50.65 110.42a.755.755 0 0 1-.38-.1c-20-11.52-23.65-15.59-23.8-15.76a.76.76 0 0 1 1.14-1c.06.06 3.87 4.18 23.42 15.45a.751.751 0 0 1 .27 1 .74.74 0 0 1-.65.41zM44.75 118a.726.726 0 0 1-.35-.09c-6.3-3.26-10.87-6-10.91-6a.757.757 0 0 1-.441-.779.766.766 0 0 1 .316-.534.77.77 0 0 1 .895.013s4.57 2.69 10.84 5.93a.763.763 0 0 1 .32 1 .753.753 0 0 1-.67.46zM81.22 37.94A3.91 3.91 0 0 1 77.9 36a.76.76 0 1 1 1.32-.75 2.42 2.42 0 0 0 3.33.85.76.76 0 0 1 .65 1.37 4.61 4.61 0 0 1-1.98.47z" fill="#383C45"/>
    </g>
    <defs>
        <clipPath id="1jkzwxc9ya">
            <path fill="#fff" d="M0 0h154v133H0z"/>
        </clipPath>
    </defs>
</svg>
